<svg width="1915" height="1427" xmlns="http://www.w3.org/2000/svg" xmlns:xlink="http://www.w3.org/1999/xlink" overflow="hidden"><defs><clipPath id="clip0"><rect x="2090" y="941" width="1915" height="1427"/></clipPath><clipPath id="clip1"><rect x="2107" y="940" width="1899" height="1429"/></clipPath><clipPath id="clip2"><rect x="2107" y="940" width="1899" height="1429"/></clipPath></defs><g clip-path="url(#clip0)" transform="translate(-2090 -941)"><path d="M2090 1040.55C2090 985.568 2134.57 941 2189.55 941L3905.45 941C3960.43 941 4005 985.568 4005 1040.55L4005 2268.45C4005 2323.43 3960.43 2368 3905.45 2368L2189.55 2368C2134.57 2368 2090 2323.43 2090 2268.45Z" fill="#FFFFFF" fill-rule="evenodd"/><g clip-path="url(#clip1)"><g clip-path="url(#clip2)"><path d="M2155.09 2087.15 2040.95 2233.49 2055.68 2248.85 2075.37 2246.05 2100.7 2232.03 2128.82 2192.77 2154.15 2151.64 2155.09 2087.15Z" fill="#CED3E2" fill-rule="evenodd" transform="matrix(1.00071 0 0 1 681.547 -687.989)"/><path d="M2156.45 2124.82 2139.37 2147.21 2127.98 2160.28 2119.43 2168.68 2109 2168.68 2096.66 2164.94 2152.66 2091.23 2156.45 2124.82Z" fill="#8C9ABB" fill-rule="evenodd" transform="matrix(1.00071 0 0 1 681.547 -687.989)"/><path d="M2122.48 2124.76 2139.75 2125.2 2154.13 2105.28 2155.09 2085.79 2122.48 2124.76Z" fill="#4B6094" fill-rule="evenodd" transform="matrix(1.00071 0 0 1 681.547 -687.989)"/><path d="M2366.96 2091.47 2352.92 2113.21 2329.54 2119.82 2284.63 2125.5 2262.18 2136.84 2222.88 2142.51 2189.2 2142.51 2156.45 2151.01 2157.5 2090.82 2367.07 2089.87 2366.96 2091.47Z" fill="#CED3E2" fill-rule="evenodd" transform="matrix(1.00071 0 0 1 681.547 -687.989)"/><path d="M2270.59 2089.87 2155.09 2089.87 2156.95 2122.48 2188.63 2121.54 2215.64 2118.76 2244.51 2112.23 2270.59 2089.87Z" fill="#8C9ABB" fill-rule="evenodd" transform="matrix(1.00071 0 0 1 681.547 -687.989)"/><path d="M1040.86 2379.3 1932.47 2379.3 2153.05 2089.61 3046.54 2093.35 3280.19 1803.67 1480.12 1801.8 1040.86 2379.3Z" fill="#E2F0D9" fill-rule="evenodd" transform="matrix(1.00071 0 0 1 681.547 -687.989)"/><path d="M2153.55 2089.07 2374.27 2089.07 2390.17 2049.02 2384.55 1993.15 2334.05 1959.62 2300.39 1935.42 2283.55 1927.96C2281.03 1926.81 2278.8 1924.82 2276.07 1924.24 2269.94 1922.94 2257.37 1922.38 2257.37 1922.38L2227.43 1918.66 2186.29 1937.28C2180.68 1939.15 2175.21 1941.51 2169.45 1942.87 2164.56 1944.01 2154.49 1944.73 2154.49 1944.73L2122.7 1944.73 2089.02 1944.73 2044.14 1944.73C2025.98 1957.65 2036.41 1954.04 2012.35 1954.04L1988.02 1972.67 1974.94 1981.98 1911.33 1995.01 1862.71 1995.01 1840.27 1998.74C1839.25 1999.08 1821.23 2005.53 1815.94 2006.19 1813.47 2006.49 1810.96 2006.19 1808.47 2006.19L1780.41 2024.81 1769.19 2067.65 1800.98 2110.48C1820.78 2117.04 1811.91 2116.06 1827.17 2116.06L1922.56 2125.39 1935.65 2136.56 1931.92 2173.8 1931.92 2198.02 1952.49 2218.49 2006.73 2224.09 2040.39 2235.26" fill="#CED3E2" fill-rule="evenodd" transform="matrix(1.00071 0 0 1 681.547 -687.989)"/><path d="M2272.56 2089.55 2282.82 2036.38 2267.9 2007.47 2224.08 1990.67 2182.13 2013.07 2099.15 2026.12 2049.73 2036.38 2018.03 2041.98 1987.26 2041.98 1979.8 2055.96 1982.6 2072.76 2012.44 2085.82 2034.81 2107.27 2050.67 2152.98 2095.41 2163.24 2150.57 2090.48 2272.56 2089.55Z" fill="#8C9ABB" fill-rule="evenodd" transform="matrix(1.00071 0 0 1 681.547 -687.989)"/><path d="M2205.37 2087.31 2193.26 2060.56 2169.05 2055.03 2151.34 2053.18 2115.94 2071.63 2102.91 2086.39 2091.73 2093.78 2089.87 2110.39 2122.47 2127.91 2156 2091.93 2205.37 2087.31Z" fill="#F4B183" fill-rule="evenodd" transform="matrix(1.00071 0 0 1 681.547 -687.989)"/><path d="M0 0 439.069 577.329" stroke="#000000" stroke-width="9.34189" stroke-miterlimit="8" fill="none" fill-rule="evenodd" transform="matrix(1.00071 0 0 -1 1723.82 1691.82)"/><path d="M1481.79 1803.84 3282.41 1803.84" stroke="#000000" stroke-width="9.34189" stroke-miterlimit="8" fill="none" fill-rule="evenodd" transform="matrix(1.00071 0 0 1 681.547 -687.989)"/><path d="M2151.69 2091.91 3057.85 2091.91" stroke="#000000" stroke-width="6.22793" stroke-miterlimit="8" fill="none" fill-rule="evenodd" transform="matrix(1.00071 0 0 1 681.547 -687.989)"/><path d="M0 0 221.803 288.468" stroke="#000000" stroke-width="6.22793" stroke-miterlimit="8" fill="none" fill-rule="evenodd" transform="matrix(1.00071 0 0 -1 2613.12 1692.38)"/><path d="M1041.54 2379.98 1932.76 2379.98" stroke="#000000" stroke-width="9.34189" stroke-miterlimit="8" fill="none" fill-rule="evenodd" transform="matrix(1.00071 0 0 1 681.547 -687.989)"/><path d="M0 0 230.706 287.74" stroke="#000000" stroke-width="9.34189" stroke-miterlimit="8" fill="none" fill-rule="evenodd" transform="matrix(1.00071 0 0 -1 3736.3 1403.59)"/><path d="M0 0 878.871 1.74088" stroke="#000000" stroke-width="9.34189" stroke-miterlimit="8" fill="none" fill-rule="evenodd" transform="matrix(1.00071 0 0 -1 1730.62 2336.45)"/><path d="M0 0 230.004 285.223" stroke="#000000" stroke-width="9.34189" stroke-miterlimit="8" fill="none" fill-rule="evenodd" transform="matrix(1.00071 0 0 -1 3741.74 2045.16)"/><path d="M1048.35 3024.27 1041.54 2379.98" stroke="#000000" stroke-width="9.34189" stroke-miterlimit="8" fill="none" fill-rule="evenodd" transform="matrix(1.00071 0 0 1 681.547 -687.989)"/><path d="M1927.73 3019.06 1927.49 2379.98" stroke="#000000" stroke-width="9.34189" stroke-miterlimit="8" fill="none" fill-rule="evenodd" transform="matrix(1.00071 0 0 1 681.547 -687.989)"/><path d="M3058.08 2732.24 3052.59 2090.55" stroke="#000000" stroke-width="9.34189" stroke-miterlimit="8" fill="none" fill-rule="evenodd" transform="matrix(1.00071 0 0 1 681.547 -687.989)"/><path d="M3285.72 2448.04 3278.16 1803.84" stroke="#000000" stroke-width="9.34189" stroke-miterlimit="8" fill="none" fill-rule="evenodd" transform="matrix(1.00071 0 0 1 681.547 -687.989)"/><path d="M0 0 214.063 289.868" stroke="#000000" stroke-width="9.34189" stroke-miterlimit="8" stroke-opacity="0.2" fill="none" fill-rule="evenodd" transform="matrix(1.00071 0 0 -1 3521.45 1693.78)"/><path d="M0 0 905.096 1.34464" stroke="#000000" stroke-width="9.34189" stroke-miterlimit="8" stroke-opacity="0.2" fill="none" fill-rule="evenodd" transform="matrix(1.00071 0 0 -1 2615.84 1691.97)"/><path d="M0 0 218.583 294.961" stroke="#000000" stroke-width="9.34189" stroke-miterlimit="8" stroke-opacity="0.2" fill="none" fill-rule="evenodd" transform="matrix(1.00071 0 0 -1 3526.89 2340.24)"/><path d="M1916.62 3022.7 2842.65 3023.92" stroke="#000000" stroke-width="9.34189" stroke-miterlimit="8" stroke-opacity="0.2" fill="none" fill-rule="evenodd" transform="matrix(1.00071 0 0 1 681.547 -687.989)"/><path d="M2844.04 3020.01 2839.26 2381.33" stroke="#000000" stroke-width="9.34189" stroke-miterlimit="8" stroke-opacity="0.2" fill="none" fill-rule="evenodd" transform="matrix(1.00071 0 0 1 681.547 -687.989)"/><path d="M2367.75 2093.26 2353.8 2114.42 2330.55 2120.86 2285.93 2126.38 2263.62 2137.41 2224.57 2142.93 2191.1 2142.93 2155.77 2153.05" stroke="#000000" stroke-width="4.67095" stroke-miterlimit="8" fill="none" fill-rule="evenodd" transform="matrix(1.00071 0 0 1 681.547 -687.989)"/><path d="M2368.87 2089.08 2392.2 2049.9 2386.61 1993.95 2336.22 1960.37 2302.62 1936.12 2285.82 1928.66C2283.3 1927.5 2281.08 1925.52 2278.36 1924.93 2272.25 1923.62 2259.69 1923.07 2259.69 1923.07L2229.84 1919.33 2188.78 1937.99C2183.18 1939.85 2177.73 1942.23 2171.98 1943.59 2167.09 1944.73 2157.05 1945.45 2157.05 1945.45L2125.32 1945.45 2091.73 1945.45 2046.93 1945.45C2028.8 1958.39 2039.22 1954.77 2015.2 1954.77L1990.94 1973.43 1977.87 1982.75 1914.43 1995.81 1865.89 1995.81 1843.5 1999.55C1842.48 1999.89 1824.52 2006.35 1819.24 2007.01 1816.77 2007.32 1814.26 2007.01 1811.77 2007.01L1783.78 2025.66 1772.58 2068.56 1804.31 2111.47C1824.05 2118.05 1815.21 2117.06 1830.44 2117.06L1925.63 2126.39 1938.68 2137.59 1934.95 2174.89 1934.95 2199.14 1955.48 2219.66 2009.6 2225.26 2039.47 2234.58" stroke="#000000" stroke-width="4.67095" stroke-miterlimit="8" fill="none" fill-rule="evenodd" transform="matrix(1.00071 0 0 1 681.547 -687.989)"/><path d="M2041.63 2232.39 2057.47 2248.17 2077.05 2245.38 2102.22 2231.46 2130.18 2192.47 2154.41 2154.41" stroke="#000000" stroke-width="4.67095" stroke-miterlimit="8" fill="none" fill-rule="evenodd" transform="matrix(1.00071 0 0 1 681.547 -687.989)"/><path d="M1481.79 1802.48 3270.83 1802.98" stroke="#000000" stroke-width="9.34189" stroke-miterlimit="8" fill="none" fill-rule="evenodd" transform="matrix(1.00071 0 0 1 681.547 -687.989)"/><path d="M2151.69 2733.27 3057.85 2733.27" stroke="#000000" stroke-width="9.34189" stroke-miterlimit="8" fill="none" fill-rule="evenodd" transform="matrix(1.00071 0 0 1 681.547 -687.989)"/><path d="M0 0 222.991 287.503" stroke="#000000" stroke-width="9.34189" stroke-miterlimit="8" fill="none" fill-rule="evenodd" transform="matrix(1.00071 0 0 -1 2613.12 2332.78)"/><path d="M2157.37 2728.27 2157.13 2089.19" stroke="#000000" stroke-width="9.34189" stroke-miterlimit="8" fill="none" fill-rule="evenodd" transform="matrix(1.00071 0 0 1 681.547 -687.989)"/><path d="M2271.88 2089.99 2282.14 2036.94 2267.22 2008.11 2223.4 1991.35 2180.51 2012.75 2118.05 2022.99 2049.05 2036.94 2017.35 2042.53 1986.58 2042.53 1979.12 2056.48 1981.92 2073.23 2011.76 2086.27 2034.13 2107.67 2049.99 2153.26 2097.53 2162.56" stroke="#000000" stroke-width="4.67095" stroke-miterlimit="8" fill="none" fill-rule="evenodd" transform="matrix(1.00071 0 0 1 681.547 -687.989)"/><path d="M2207.41 2093.83 2192.34 2060.01 2167.86 2054.37 2149.97 2052.5 2114.19 2071.29 2101.01 2086.32 2089.72 2093.83 2087.83 2110.74 2120.78 2128.59 2154.68 2091.96 2207.41 2093.83Z" stroke="#000000" stroke-width="4.67095" stroke-miterlimit="8" fill="#4B6094" fill-rule="evenodd" transform="matrix(1.00071 0 0 1 681.547 -687.989)"/><path d="M2271.27 2090.55 2155.77 2090.55 2157.63 2123.16 2189.31 2122.22 2216.32 2119.43 2245.19 2112.91 2271.27 2090.55Z" stroke="#000000" stroke-width="4.67095" stroke-miterlimit="8" fill="none" fill-rule="evenodd" transform="matrix(1.00071 0 0 1 681.547 -687.989)"/><path d="M2124.52 2125.44 2141.07 2125.88 2154.85 2105.96 2155.77 2086.47 2124.52 2125.44Z" stroke="#000000" stroke-width="4.67095" stroke-miterlimit="8" fill="none" fill-rule="evenodd" transform="matrix(1.00071 0 0 1 681.547 -687.989)"/><path d="M2155.77 2122.78 2139.07 2145.17 2127.94 2158.24 2119.6 2166.64 2109.39 2166.64 2097.34 2162.9 2152.06 2089.19 2155.77 2122.78Z" stroke="#000000" stroke-width="4.67095" stroke-miterlimit="8" fill="none" fill-rule="evenodd" transform="matrix(1.00071 0 0 1 681.547 -687.989)"/><path d="M1272.54 2090.55C1272.54 2084.54 1277.71 2079.68 1284.09 2079.68 1290.46 2079.68 1295.64 2084.54 1295.64 2090.55 1295.64 2096.55 1290.46 2101.42 1284.09 2101.42 1277.71 2101.42 1272.54 2096.55 1272.54 2090.55Z" stroke="#000000" stroke-width="6.22793" stroke-miterlimit="8" fill-rule="evenodd" transform="matrix(1.00071 0 0 1 681.547 -687.989)"/><path d="M1330.97 2090.55C1330.97 2084.54 1335.83 2079.68 1341.84 2079.68 1347.84 2079.68 1352.71 2084.54 1352.71 2090.55 1352.71 2096.55 1347.84 2101.42 1341.84 2101.42 1335.83 2101.42 1330.97 2096.55 1330.97 2090.55Z" stroke="#000000" stroke-width="6.22793" stroke-miterlimit="8" fill-rule="evenodd" transform="matrix(1.00071 0 0 1 681.547 -687.989)"/><path d="M1388.04 2090.55C1388.04 2084.54 1392.9 2079.68 1398.91 2079.68 1404.91 2079.68 1409.78 2084.54 1409.78 2090.55 1409.78 2096.55 1404.91 2101.42 1398.91 2101.42 1392.9 2101.42 1388.04 2096.55 1388.04 2090.55Z" stroke="#000000" stroke-width="6.22793" stroke-miterlimit="8" fill-rule="evenodd" transform="matrix(1.00071 0 0 1 681.547 -687.989)"/><path d="M1445.11 2090.55C1445.11 2084.54 1450.28 2079.68 1456.66 2079.68 1463.03 2079.68 1468.21 2084.54 1468.21 2090.55 1468.21 2096.55 1463.03 2101.42 1456.66 2101.42 1450.28 2101.42 1445.11 2096.55 1445.11 2090.55Z" stroke="#000000" stroke-width="6.22793" stroke-miterlimit="8" fill-rule="evenodd" transform="matrix(1.00071 0 0 1 681.547 -687.989)"/><path d="M1503.54 2090.55C1503.54 2084.54 1508.4 2079.68 1514.41 2079.68 1520.41 2079.68 1525.28 2084.54 1525.28 2090.55 1525.28 2096.55 1520.41 2101.42 1514.41 2101.42 1508.4 2101.42 1503.54 2096.55 1503.54 2090.55Z" stroke="#000000" stroke-width="6.22793" stroke-miterlimit="8" fill="#C00000" fill-rule="evenodd" transform="matrix(1.00071 0 0 1 681.547 -687.989)"/><path d="M1561.96 2090.55C1561.96 2084.54 1567.14 2079.68 1573.51 2079.68 1579.89 2079.68 1585.06 2084.54 1585.06 2090.55 1585.06 2096.55 1579.89 2101.42 1573.51 2101.42 1567.14 2101.42 1561.96 2096.55 1561.96 2090.55Z" stroke="#000000" stroke-width="6.22793" stroke-miterlimit="8" fill="#4472C4" fill-rule="evenodd" transform="matrix(1.00071 0 0 1 681.547 -687.989)"/><path d="M1620.39 2090.55C1620.39 2084.54 1625.26 2079.68 1631.26 2079.68 1637.27 2079.68 1642.14 2084.54 1642.14 2090.55 1642.14 2096.55 1637.27 2101.42 1631.26 2101.42 1625.26 2101.42 1620.39 2096.55 1620.39 2090.55Z" stroke="#000000" stroke-width="6.22793" stroke-miterlimit="8" fill="#4472C4" fill-rule="evenodd" transform="matrix(1.00071 0 0 1 681.547 -687.989)"/><path d="M1677.46 2090.55C1677.46 2084.54 1682.64 2079.68 1689.01 2079.68 1695.39 2079.68 1700.56 2084.54 1700.56 2090.55 1700.56 2096.55 1695.39 2101.42 1689.01 2101.42 1682.64 2101.42 1677.46 2096.55 1677.46 2090.55Z" stroke="#000000" stroke-width="6.22793" stroke-miterlimit="8" fill-rule="evenodd" transform="matrix(1.00071 0 0 1 681.547 -687.989)"/><path d="M1734.54 2090.55C1734.54 2084.54 1739.71 2079.68 1746.09 2079.68 1752.46 2079.68 1757.64 2084.54 1757.64 2090.55 1757.64 2096.55 1752.46 2101.42 1746.09 2101.42 1739.71 2101.42 1734.54 2096.55 1734.54 2090.55Z" stroke="#000000" stroke-width="6.22793" stroke-miterlimit="8" fill-rule="evenodd" transform="matrix(1.00071 0 0 1 681.547 -687.989)"/><path d="M1792.96 2090.55C1792.96 2084.54 1797.83 2079.68 1803.84 2079.68 1809.84 2079.68 1814.71 2084.54 1814.71 2090.55 1814.71 2096.55 1809.84 2101.42 1803.84 2101.42 1797.83 2101.42 1792.96 2096.55 1792.96 2090.55Z" stroke="#000000" stroke-width="6.22793" stroke-miterlimit="8" fill-rule="evenodd" transform="matrix(1.00071 0 0 1 681.547 -687.989)"/><path d="M1850.04 2090.55C1850.04 2084.54 1855.21 2079.68 1861.58 2079.68 1867.96 2079.68 1873.14 2084.54 1873.14 2090.55 1873.14 2096.55 1867.96 2101.42 1861.58 2101.42 1855.21 2101.42 1850.04 2096.55 1850.04 2090.55Z" stroke="#000000" stroke-width="6.22793" stroke-miterlimit="8" fill-rule="evenodd" transform="matrix(1.00071 0 0 1 681.547 -687.989)"/><path d="M1908.46 2090.55C1908.46 2084.54 1913.33 2079.68 1919.33 2079.68 1925.34 2079.68 1930.21 2084.54 1930.21 2090.55 1930.21 2096.55 1925.34 2101.42 1919.33 2101.42 1913.33 2101.42 1908.46 2096.55 1908.46 2090.55Z" stroke="#000000" stroke-width="6.22793" stroke-miterlimit="8" fill-rule="evenodd" transform="matrix(1.00071 0 0 1 681.547 -687.989)"/><path d="M1965.53 2090.55C1965.53 2084.54 1970.4 2079.68 1976.41 2079.68 1982.41 2079.68 1987.28 2084.54 1987.28 2090.55 1987.28 2096.55 1982.41 2101.42 1976.41 2101.42 1970.4 2101.42 1965.53 2096.55 1965.53 2090.55Z" stroke="#000000" stroke-width="6.22793" stroke-miterlimit="8" fill-rule="evenodd" transform="matrix(1.00071 0 0 1 681.547 -687.989)"/><path d="M2025.32 2090.55C2025.32 2084.54 2030.19 2079.68 2036.19 2079.68 2042.2 2079.68 2047.06 2084.54 2047.06 2090.55 2047.06 2096.55 2042.2 2101.42 2036.19 2101.42 2030.19 2101.42 2025.32 2096.55 2025.32 2090.55Z" stroke="#000000" stroke-width="6.22793" stroke-miterlimit="8" fill-rule="evenodd" transform="matrix(1.00071 0 0 1 681.547 -687.989)"/><path d="M2082.39 2090.55C2082.39 2084.54 2087.26 2079.68 2093.26 2079.68 2099.27 2079.68 2104.13 2084.54 2104.13 2090.55 2104.13 2096.55 2099.27 2101.42 2093.26 2101.42 2087.26 2101.42 2082.39 2096.55 2082.39 2090.55Z" stroke="#000000" stroke-width="6.22793" stroke-miterlimit="8" fill-rule="evenodd" transform="matrix(1.00071 0 0 1 681.547 -687.989)"/><path d="M2197.89 2090.55C2197.89 2084.54 2202.76 2079.68 2208.76 2079.68 2214.77 2079.68 2219.63 2084.54 2219.63 2090.55 2219.63 2096.55 2214.77 2101.42 2208.76 2101.42 2202.76 2101.42 2197.89 2096.55 2197.89 2090.55Z" stroke="#000000" stroke-width="6.22793" stroke-miterlimit="8" fill-rule="evenodd" transform="matrix(1.00071 0 0 1 681.547 -687.989)"/><path d="M2254.96 2090.55C2254.96 2084.54 2260.14 2079.68 2266.51 2079.68 2272.89 2079.68 2278.06 2084.54 2278.06 2090.55 2278.06 2096.55 2272.89 2101.42 2266.51 2101.42 2260.14 2101.42 2254.96 2096.55 2254.96 2090.55Z" stroke="#000000" stroke-width="6.22793" stroke-miterlimit="8" fill-rule="evenodd" transform="matrix(1.00071 0 0 1 681.547 -687.989)"/><path d="M2313.39 2090.55C2313.39 2084.54 2318.26 2079.68 2324.26 2079.68 2330.27 2079.68 2335.13 2084.54 2335.13 2090.55 2335.13 2096.55 2330.27 2101.42 2324.26 2101.42 2318.26 2101.42 2313.39 2096.55 2313.39 2090.55Z" stroke="#000000" stroke-width="6.22793" stroke-miterlimit="8" fill-rule="evenodd" transform="matrix(1.00071 0 0 1 681.547 -687.989)"/><path d="M2370.46 2090.55C2370.46 2084.54 2375.33 2079.68 2381.33 2079.68 2387.34 2079.68 2392.2 2084.54 2392.2 2090.55 2392.2 2096.55 2387.34 2101.42 2381.33 2101.42 2375.33 2101.42 2370.46 2096.55 2370.46 2090.55Z" stroke="#000000" stroke-width="6.22793" stroke-miterlimit="8" fill-rule="evenodd" transform="matrix(1.00071 0 0 1 681.547 -687.989)"/><path d="M2430.25 2090.55C2430.25 2084.54 2435.12 2079.68 2441.12 2079.68 2447.13 2079.68 2451.99 2084.54 2451.99 2090.55 2451.99 2096.55 2447.13 2101.42 2441.12 2101.42 2435.12 2101.42 2430.25 2096.55 2430.25 2090.55Z" stroke="#000000" stroke-width="6.22793" stroke-miterlimit="8" fill-rule="evenodd" transform="matrix(1.00071 0 0 1 681.547 -687.989)"/><path d="M2487.32 2090.55C2487.32 2084.54 2492.19 2079.68 2498.19 2079.68 2504.2 2079.68 2509.06 2084.54 2509.06 2090.55 2509.06 2096.55 2504.2 2101.42 2498.19 2101.42 2492.19 2101.42 2487.32 2096.55 2487.32 2090.55Z" stroke="#000000" stroke-width="6.22793" stroke-miterlimit="8" fill="#C00000" fill-rule="evenodd" transform="matrix(1.00071 0 0 1 681.547 -687.989)"/><path d="M2544.39 2090.55C2544.39 2084.54 2549.57 2079.68 2555.94 2079.68 2562.32 2079.68 2567.49 2084.54 2567.49 2090.55 2567.49 2096.55 2562.32 2101.42 2555.94 2101.42 2549.57 2101.42 2544.39 2096.55 2544.39 2090.55Z" stroke="#000000" stroke-width="6.22793" stroke-miterlimit="8" fill-rule="evenodd" transform="matrix(1.00071 0 0 1 681.547 -687.989)"/><path d="M2602.82 2090.55C2602.82 2084.54 2607.69 2079.68 2613.69 2079.68 2619.7 2079.68 2624.56 2084.54 2624.56 2090.55 2624.56 2096.55 2619.7 2101.42 2613.69 2101.42 2607.69 2101.42 2602.82 2096.55 2602.82 2090.55Z" stroke="#000000" stroke-width="6.22793" stroke-miterlimit="8" fill="#4472C4" fill-rule="evenodd" transform="matrix(1.00071 0 0 1 681.547 -687.989)"/><path d="M2659.89 2090.55C2659.89 2084.54 2665.07 2079.68 2671.44 2079.68 2677.82 2079.68 2682.99 2084.54 2682.99 2090.55 2682.99 2096.55 2677.82 2101.42 2671.44 2101.42 2665.07 2101.42 2659.89 2096.55 2659.89 2090.55Z" stroke="#000000" stroke-width="6.22793" stroke-miterlimit="8" fill-rule="evenodd" transform="matrix(1.00071 0 0 1 681.547 -687.989)"/><path d="M2716.96 2090.55C2716.96 2084.54 2722.14 2079.68 2728.51 2079.68 2734.89 2079.68 2740.06 2084.54 2740.06 2090.55 2740.06 2096.55 2734.89 2101.42 2728.51 2101.42 2722.14 2101.42 2716.96 2096.55 2716.96 2090.55Z" stroke="#000000" stroke-width="6.22793" stroke-miterlimit="8" fill-rule="evenodd" transform="matrix(1.00071 0 0 1 681.547 -687.989)"/><path d="M2775.39 2090.55C2775.39 2084.54 2780.26 2079.68 2786.26 2079.68 2792.27 2079.68 2797.13 2084.54 2797.13 2090.55 2797.13 2096.55 2792.27 2101.42 2786.26 2101.42 2780.26 2101.42 2775.39 2096.55 2775.39 2090.55Z" stroke="#000000" stroke-width="6.22793" stroke-miterlimit="8" fill="#4472C4" fill-rule="evenodd" transform="matrix(1.00071 0 0 1 681.547 -687.989)"/><path d="M2832.46 2090.55C2832.46 2084.54 2837.64 2079.68 2844.01 2079.68 2850.39 2079.68 2855.56 2084.54 2855.56 2090.55 2855.56 2096.55 2850.39 2101.42 2844.01 2101.42 2837.64 2101.42 2832.46 2096.55 2832.46 2090.55Z" stroke="#000000" stroke-width="6.22793" stroke-miterlimit="8" fill-rule="evenodd" transform="matrix(1.00071 0 0 1 681.547 -687.989)"/><path d="M2892.25 2090.55C2892.25 2084.54 2897.12 2079.68 2903.12 2079.68 2909.13 2079.68 2913.99 2084.54 2913.99 2090.55 2913.99 2096.55 2909.13 2101.42 2903.12 2101.42 2897.12 2101.42 2892.25 2096.55 2892.25 2090.55Z" stroke="#000000" stroke-width="6.22793" stroke-miterlimit="8" fill="#C00000" fill-rule="evenodd" transform="matrix(1.00071 0 0 1 681.547 -687.989)"/><path d="M2949.32 2090.55C2949.32 2084.54 2954.5 2079.68 2960.87 2079.68 2967.24 2079.68 2972.42 2084.54 2972.42 2090.55 2972.42 2096.55 2967.24 2101.42 2960.87 2101.42 2954.5 2101.42 2949.32 2096.55 2949.32 2090.55Z" stroke="#000000" stroke-width="6.22793" stroke-miterlimit="8" fill-rule="evenodd" transform="matrix(1.00071 0 0 1 681.547 -687.989)"/><path d="M3007.75 2090.55C3007.75 2084.54 3012.62 2079.68 3018.62 2079.68 3024.63 2079.68 3029.49 2084.54 3029.49 2090.55 3029.49 2096.55 3024.63 2101.42 3018.62 2101.42 3012.62 2101.42 3007.75 2096.55 3007.75 2090.55Z" stroke="#000000" stroke-width="6.22793" stroke-miterlimit="8" fill-rule="evenodd" transform="matrix(1.00071 0 0 1 681.547 -687.989)"/><path d="M1978.44 2133.35C1984.45 2133.35 1989.31 2138.21 1989.31 2144.22 1989.31 2150.23 1984.45 2155.09 1978.44 2155.09 1972.44 2155.09 1967.57 2150.23 1967.57 2144.22 1967.57 2138.21 1972.44 2133.35 1978.44 2133.35Z" stroke="#000000" stroke-width="3.11397" stroke-miterlimit="8" stroke-opacity="0.501961" fill="#EDEDED" fill-rule="evenodd" transform="matrix(1.00071 0 0 1 681.547 -687.989)"/><path d="M1978.44 2190.42C1984.45 2190.42 1989.31 2195.28 1989.31 2201.29 1989.31 2207.3 1984.45 2212.16 1978.44 2212.16 1972.44 2212.16 1967.57 2207.3 1967.57 2201.29 1967.57 2195.28 1972.44 2190.42 1978.44 2190.42Z" stroke="#000000" stroke-width="3.11397" stroke-miterlimit="8" stroke-opacity="0.501961" fill="#EDEDED" fill-rule="evenodd" transform="matrix(1.00071 0 0 1 681.547 -687.989)"/><path d="M1978.44 2247.49C1984.45 2247.49 1989.31 2252.67 1989.31 2259.04 1989.31 2265.41 1984.45 2270.59 1978.44 2270.59 1972.44 2270.59 1967.57 2265.41 1967.57 2259.04 1967.57 2252.67 1972.44 2247.49 1978.44 2247.49Z" stroke="#000000" stroke-width="3.11397" stroke-miterlimit="8" stroke-opacity="0.501961" fill="#EDEDED" fill-rule="evenodd" transform="matrix(1.00071 0 0 1 681.547 -687.989)"/><path d="M1978.44 2307.28C1984.45 2307.28 1989.31 2312.46 1989.31 2318.83 1989.31 2325.2 1984.45 2330.38 1978.44 2330.38 1972.44 2330.38 1967.57 2325.2 1967.57 2318.83 1967.57 2312.46 1972.44 2307.28 1978.44 2307.28Z" stroke="#000000" stroke-width="3.11397" stroke-miterlimit="8" stroke-opacity="0.501961" fill="#EDEDED" fill-rule="evenodd" transform="matrix(1.00071 0 0 1 681.547 -687.989)"/><path d="M1978.44 2364.35C1984.45 2364.35 1989.31 2369.53 1989.31 2375.9 1989.31 2382.27 1984.45 2387.45 1978.44 2387.45 1972.44 2387.45 1967.57 2382.27 1967.57 2375.9 1967.57 2369.53 1972.44 2364.35 1978.44 2364.35Z" stroke="#000000" stroke-width="3.11397" stroke-miterlimit="8" stroke-opacity="0.501961" fill="#EDEDED" fill-rule="evenodd" transform="matrix(1.00071 0 0 1 681.547 -687.989)"/><path d="M1978.44 2422.78C1984.45 2422.78 1989.31 2427.64 1989.31 2433.65 1989.31 2439.65 1984.45 2444.52 1978.44 2444.52 1972.44 2444.52 1967.57 2439.65 1967.57 2433.65 1967.57 2427.64 1972.44 2422.78 1978.44 2422.78Z" stroke="#000000" stroke-width="3.11397" stroke-miterlimit="8" stroke-opacity="0.501961" fill="#EDEDED" fill-rule="evenodd" transform="matrix(1.00071 0 0 1 681.547 -687.989)"/><path d="M1978.44 2479.85C1984.45 2479.85 1989.31 2485.03 1989.31 2491.4 1989.31 2497.77 1984.45 2502.95 1978.44 2502.95 1972.44 2502.95 1967.57 2497.77 1967.57 2491.4 1967.57 2485.03 1972.44 2479.85 1978.44 2479.85Z" stroke="#000000" stroke-width="3.11397" stroke-miterlimit="8" stroke-opacity="0.501961" fill="#EDEDED" fill-rule="evenodd" transform="matrix(1.00071 0 0 1 681.547 -687.989)"/><path d="M1978.44 2536.92C1984.45 2536.92 1989.31 2542.1 1989.31 2548.47 1989.31 2554.84 1984.45 2560.02 1978.44 2560.02 1972.44 2560.02 1967.57 2554.84 1967.57 2548.47 1967.57 2542.1 1972.44 2536.92 1978.44 2536.92Z" stroke="#000000" stroke-width="3.11397" stroke-miterlimit="8" stroke-opacity="0.501961" fill="#EDEDED" fill-rule="evenodd" transform="matrix(1.00071 0 0 1 681.547 -687.989)"/><path d="M1978.44 2595.35C1984.45 2595.35 1989.31 2600.21 1989.31 2606.22 1989.31 2612.23 1984.45 2617.09 1978.44 2617.09 1972.44 2617.09 1967.57 2612.23 1967.57 2606.22 1967.57 2600.21 1972.44 2595.35 1978.44 2595.35Z" stroke="#000000" stroke-width="3.11397" stroke-miterlimit="8" stroke-opacity="0.501961" fill="#EDEDED" fill-rule="evenodd" transform="matrix(1.00071 0 0 1 681.547 -687.989)"/><path d="M1978.44 2652.42C1984.45 2652.42 1989.31 2657.6 1989.31 2663.97 1989.31 2670.34 1984.45 2675.52 1978.44 2675.52 1972.44 2675.52 1967.57 2670.34 1967.57 2663.97 1967.57 2657.6 1972.44 2652.42 1978.44 2652.42Z" stroke="#000000" stroke-width="3.11397" stroke-miterlimit="8" stroke-opacity="0.501961" fill="#EDEDED" fill-rule="evenodd" transform="matrix(1.00071 0 0 1 681.547 -687.989)"/><path d="M2323.58 2134.71C2329.59 2134.71 2334.45 2139.57 2334.45 2145.58 2334.45 2151.58 2329.59 2156.45 2323.58 2156.45 2317.58 2156.45 2312.71 2151.58 2312.71 2145.58 2312.71 2139.57 2317.58 2134.71 2323.58 2134.71Z" stroke="#000000" stroke-width="3.11397" stroke-miterlimit="8" fill-rule="evenodd" transform="matrix(1.00071 0 0 1 681.547 -687.989)"/><path d="M2323.58 2191.78C2329.59 2191.78 2334.45 2196.96 2334.45 2203.33 2334.45 2209.7 2329.59 2214.88 2323.58 2214.88 2317.58 2214.88 2312.71 2209.7 2312.71 2203.33 2312.71 2196.96 2317.58 2191.78 2323.58 2191.78Z" stroke="#000000" stroke-width="3.11397" stroke-miterlimit="8" fill-rule="evenodd" transform="matrix(1.00071 0 0 1 681.547 -687.989)"/><path d="M2323.58 2250.21C2329.59 2250.21 2334.45 2255.07 2334.45 2261.08 2334.45 2267.08 2329.59 2271.95 2323.58 2271.95 2317.58 2271.95 2312.71 2267.08 2312.71 2261.08 2312.71 2255.07 2317.58 2250.21 2323.58 2250.21Z" stroke="#000000" stroke-width="3.11397" stroke-miterlimit="8" fill-rule="evenodd" transform="matrix(1.00071 0 0 1 681.547 -687.989)"/><path d="M2323.58 2307.28C2329.59 2307.28 2334.45 2312.14 2334.45 2318.15 2334.45 2324.16 2329.59 2329.02 2323.58 2329.02 2317.58 2329.02 2312.71 2324.16 2312.71 2318.15 2312.71 2312.14 2317.58 2307.28 2323.58 2307.28Z" stroke="#000000" stroke-width="3.11397" stroke-miterlimit="8" fill-rule="evenodd" transform="matrix(1.00071 0 0 1 681.547 -687.989)"/><path d="M2323.58 2367.07C2329.59 2367.07 2334.45 2371.93 2334.45 2377.94 2334.45 2383.94 2329.59 2388.81 2323.58 2388.81 2317.58 2388.81 2312.71 2383.94 2312.71 2377.94 2312.71 2371.93 2317.58 2367.07 2323.58 2367.07Z" stroke="#000000" stroke-width="3.11397" stroke-miterlimit="8" fill-rule="evenodd" transform="matrix(1.00071 0 0 1 681.547 -687.989)"/><path d="M2323.58 2424.14C2329.59 2424.14 2334.45 2429.31 2334.45 2435.69 2334.45 2442.06 2329.59 2447.24 2323.58 2447.24 2317.58 2447.24 2312.71 2442.06 2312.71 2435.69 2312.71 2429.31 2317.58 2424.14 2323.58 2424.14Z" stroke="#000000" stroke-width="3.11397" stroke-miterlimit="8" fill-rule="evenodd" transform="matrix(1.00071 0 0 1 681.547 -687.989)"/><path d="M2323.58 2481.21C2329.59 2481.21 2334.45 2486.38 2334.45 2492.76 2334.45 2499.13 2329.59 2504.31 2323.58 2504.31 2317.58 2504.31 2312.71 2499.13 2312.71 2492.76 2312.71 2486.38 2317.58 2481.21 2323.58 2481.21Z" stroke="#000000" stroke-width="3.11397" stroke-miterlimit="8" fill-rule="evenodd" transform="matrix(1.00071 0 0 1 681.547 -687.989)"/><path d="M2323.58 2539.64C2329.59 2539.64 2334.45 2544.5 2334.45 2550.51 2334.45 2556.51 2329.59 2561.38 2323.58 2561.38 2317.58 2561.38 2312.71 2556.51 2312.71 2550.51 2312.71 2544.5 2317.58 2539.64 2323.58 2539.64Z" stroke="#000000" stroke-width="3.11397" stroke-miterlimit="8" fill-rule="evenodd" transform="matrix(1.00071 0 0 1 681.547 -687.989)"/><path d="M2323.58 2596.71C2329.59 2596.71 2334.45 2601.88 2334.45 2608.26 2334.45 2614.63 2329.59 2619.81 2323.58 2619.81 2317.58 2619.81 2312.71 2614.63 2312.71 2608.26 2312.71 2601.88 2317.58 2596.71 2323.58 2596.71Z" stroke="#000000" stroke-width="3.11397" stroke-miterlimit="8" fill-rule="evenodd" transform="matrix(1.00071 0 0 1 681.547 -687.989)"/><path d="M2323.58 2653.78C2329.59 2653.78 2334.45 2658.95 2334.45 2665.33 2334.45 2671.7 2329.59 2676.88 2323.58 2676.88 2317.58 2676.88 2312.71 2671.7 2312.71 2665.33 2312.71 2658.95 2317.58 2653.78 2323.58 2653.78Z" stroke="#000000" stroke-width="3.11397" stroke-miterlimit="8" fill-rule="evenodd" transform="matrix(1.00071 0 0 1 681.547 -687.989)"/><path d="M1970.15 2329.05C1965.22 2325.31 1964.24 2318.28 1967.98 2313.35 1971.72 2308.41 1978.74 2307.43 1983.68 2311.16 1988.62 2314.9 1989.6 2321.93 1985.86 2326.87 1982.13 2331.81 1975.1 2332.78 1970.15 2329.05Z" stroke="#000000" stroke-width="6.22793" stroke-miterlimit="8" fill-rule="evenodd" transform="matrix(1.00071 0 0 1 681.547 -687.989)"/><path d="M2004.93 2283.05C1999.99 2279.31 1999.02 2272.29 2002.75 2267.36 2006.49 2262.41 2013.51 2261.43 2018.46 2265.17 2023.39 2268.91 2024.37 2275.93 2020.64 2280.88 2016.9 2285.81 2009.87 2286.79 2004.93 2283.05Z" stroke="#000000" stroke-width="6.22793" stroke-miterlimit="8" fill-rule="evenodd" transform="matrix(1.00071 0 0 1 681.547 -687.989)"/><path d="M2039.58 2237.23C2034.63 2233.49 2033.67 2226.47 2037.39 2221.52 2041.13 2216.59 2048.15 2215.61 2053.1 2219.35 2058.03 2223.09 2059.01 2230.11 2055.27 2235.04 2051.55 2239.99 2044.51 2240.97 2039.58 2237.23Z" stroke="#000000" stroke-width="6.22793" stroke-miterlimit="8" fill-rule="evenodd" transform="matrix(1.00071 0 0 1 681.547 -687.989)"/><path d="M2074.35 2191.23C2069.42 2187.5 2068.44 2180.47 2072.18 2175.53 2075.9 2170.59 2082.94 2169.62 2087.87 2173.35 2092.82 2177.09 2093.78 2184.11 2090.06 2189.05 2086.32 2193.99 2079.3 2194.97 2074.35 2191.23Z" stroke="#000000" stroke-width="6.22793" stroke-miterlimit="8" fill-rule="evenodd" transform="matrix(1.00071 0 0 1 681.547 -687.989)"/><path d="M2109 2145.42C2104.05 2141.68 2103.07 2134.65 2106.81 2129.71 2110.55 2124.77 2117.57 2123.8 2122.52 2127.53 2127.45 2131.26 2128.43 2138.3 2124.69 2143.23 2120.96 2148.17 2113.93 2149.15 2109 2145.42Z" stroke="#000000" stroke-width="6.22793" stroke-miterlimit="8" fill-rule="evenodd" transform="matrix(1.00071 0 0 1 681.547 -687.989)"/><path d="M2179.55 2052.09C2174.6 2048.35 2173.62 2041.33 2177.36 2036.4 2181.1 2031.45 2188.12 2030.47 2193.07 2034.21 2198 2037.95 2198.98 2044.97 2195.24 2049.92 2191.51 2054.85 2184.48 2055.83 2179.55 2052.09Z" stroke="#000000" stroke-width="6.22793" stroke-miterlimit="8" fill-rule="evenodd" transform="matrix(1.00071 0 0 1 681.547 -687.989)"/><path d="M2214.32 2006.1C2209.38 2002.36 2208.4 1995.33 2212.13 1990.4 2215.87 1985.46 2222.9 1984.48 2227.84 1988.21 2232.77 1991.95 2233.75 1998.98 2230.02 2003.92 2226.29 2008.85 2219.25 2009.83 2214.32 2006.1Z" stroke="#000000" stroke-width="6.22793" stroke-miterlimit="8" fill-rule="evenodd" transform="matrix(1.00071 0 0 1 681.547 -687.989)"/><path d="M2248.96 1960.28C2244.03 1956.54 2243.05 1949.51 2246.78 1944.57 2250.51 1939.64 2257.55 1938.66 2262.48 1942.39 2267.42 1946.13 2268.4 1953.16 2264.67 1958.09 2260.93 1963.03 2253.9 1964.01 2248.96 1960.28Z" stroke="#000000" stroke-width="6.22793" stroke-miterlimit="8" fill-rule="evenodd" transform="matrix(1.00071 0 0 1 681.547 -687.989)"/><path d="M2283.73 1914.28C2278.8 1910.54 2277.82 1903.52 2281.56 1898.57 2285.29 1893.64 2292.32 1892.66 2297.25 1896.4 2302.2 1900.12 2303.17 1907.16 2299.44 1912.09 2295.7 1917.04 2288.68 1918.02 2283.73 1914.28Z" stroke="#000000" stroke-width="6.22793" stroke-miterlimit="8" fill-rule="evenodd" transform="matrix(1.00071 0 0 1 681.547 -687.989)"/><path d="M2318.38 1868.46C2313.43 1864.72 2312.47 1857.7 2316.19 1852.75 2319.93 1847.82 2326.95 1846.84 2331.9 1850.56 2336.83 1854.3 2337.81 1861.34 2334.07 1866.27 2330.35 1871.22 2323.31 1872.18 2318.38 1868.46Z" stroke="#000000" stroke-width="6.22793" stroke-miterlimit="8" fill-rule="evenodd" transform="matrix(1.00071 0 0 1 681.547 -687.989)"/><path d="M2139.46 2090.55C2139.46 2084.54 2144.64 2079.68 2151.01 2079.68 2157.39 2079.68 2162.56 2084.54 2162.56 2090.55 2162.56 2096.55 2157.39 2101.42 2151.01 2101.42 2144.64 2101.42 2139.46 2096.55 2139.46 2090.55Z" stroke="#000000" stroke-width="6.22793" stroke-miterlimit="8" fill-rule="evenodd" transform="matrix(1.00071 0 0 1 681.547 -687.989)"/><path d="M0.0582581 138.588C2.73445 60.1869 95.2201-1.84225 206.63 0.041006 316.154 1.89235 403.57 64.9027 403.57 141.997" stroke="#C00000" stroke-width="9.34189" stroke-miterlimit="8" fill="none" fill-rule="evenodd" transform="matrix(1.00071 0 0 -1 3184.23 1581.92)"/><path d="M2156.71 2105.49 2183.75 2105.49 2203.33 2091.91 2155.77 2091.91 2156.71 2105.49Z" stroke="#000000" stroke-width="4.67095" stroke-miterlimit="8" fill="#4B6094" fill-rule="evenodd" transform="matrix(1.00071 0 0 1 681.547 -687.989)"/><text font-family="Book Antiqua,Book Antiqua_MSFontService,sans-serif" font-weight="400" font-size="64" transform="matrix(1.35978 0 0 1.35882 3531.12 1337)">C<tspan font-size="64" x="45" y="0">2</tspan></text><path d="M2017.17 1848.68 2052.5 1848.68 2052.5 1718.23 2123.16 1718.23 2123.16 1848.68 2158.49 1848.68 2087.83 1919.33Z" stroke="#000000" stroke-width="6.22793" stroke-miterlimit="8" fill="#4B6094" fill-rule="evenodd" transform="matrix(1.00071 0 0 1 681.547 -687.989)"/><text font-family="Book Antiqua,Book Antiqua_MSFontService,sans-serif" font-weight="400" font-size="83" transform="matrix(1.35978 0 0 1.35882 2883.58 1059)">Tracer infiltration<tspan font-size="73" x="373.003" y="127.316">Electrodes</tspan><tspan font-size="64" x="175.668" y="203.117">C</tspan><tspan font-size="64" x="220.668" y="203.117">1</tspan><tspan font-size="64" x="268.522" y="338.529">P</tspan><tspan font-size="64" x="307.522" y="338.529">1</tspan><tspan font-size="64" x="394.379" y="339.265">P</tspan><tspan font-size="64" x="433.379" y="339.265">2</tspan></text><path d="M1903.71 1782.56 1445.11 2380.64 1452.58 3053.5 1003.94 3055.99C1003.11 2835.86 1002.28 2615.73 1001.45 2395.6L1472.51 1765.11 1903.71 1782.56Z" fill="#FFFFFF" fill-rule="evenodd" transform="matrix(1.00071 0 0 1 681.547 -687.989)"/><path d="M0 0 439.069 577.329" stroke="#000000" stroke-width="9.34189" stroke-miterlimit="8" fill="none" fill-rule="evenodd" transform="matrix(1.00071 0 0 -1 2127.68 1691.82)"/><path d="M1451.93 3025.63 1445.11 2381.33" stroke="#000000" stroke-width="9.34189" stroke-miterlimit="8" fill="none" fill-rule="evenodd" transform="matrix(1.00071 0 0 1 681.547 -687.989)"/><path d="M2469.66 2088.51C2469.66 2072.38 2482.74 2059.29 2498.87 2059.29 2515 2059.29 2528.09 2072.38 2528.09 2088.51 2528.09 2104.64 2515 2117.72 2498.87 2117.72 2482.74 2117.72 2469.66 2104.64 2469.66 2088.51Z" stroke="#000000" stroke-width="6.22793" stroke-miterlimit="8" fill="#C00000" fill-rule="evenodd" transform="matrix(1.00071 0 0 1 681.547 -687.989)"/><path d="M2877.3 2089.87C2877.3 2073.74 2890.08 2060.65 2905.84 2060.65 2921.6 2060.65 2934.37 2073.74 2934.37 2089.87 2934.37 2106 2921.6 2119.08 2905.84 2119.08 2890.08 2119.08 2877.3 2106 2877.3 2089.87Z" stroke="#000000" stroke-width="6.22793" stroke-miterlimit="8" fill="#C00000" fill-rule="evenodd" transform="matrix(1.00071 0 0 1 681.547 -687.989)"/><path d="M2586.52 2088.51C2586.52 2072.38 2599.29 2059.29 2615.05 2059.29 2630.81 2059.29 2643.59 2072.38 2643.59 2088.51 2643.59 2104.64 2630.81 2117.72 2615.05 2117.72 2599.29 2117.72 2586.52 2104.64 2586.52 2088.51Z" stroke="#000000" stroke-width="6.22793" stroke-miterlimit="8" fill="#4472C4" fill-rule="evenodd" transform="matrix(1.00071 0 0 1 681.547 -687.989)"/><path d="M2757.73 2087.83C2757.73 2072.07 2770.81 2059.29 2786.94 2059.29 2803.07 2059.29 2816.16 2072.07 2816.16 2087.83 2816.16 2103.59 2803.07 2116.36 2786.94 2116.36 2770.81 2116.36 2757.73 2103.59 2757.73 2087.83Z" stroke="#000000" stroke-width="6.22793" stroke-miterlimit="8" fill="#4472C4" fill-rule="evenodd" transform="matrix(1.00071 0 0 1 681.547 -687.989)"/><path d="M2526.44 2051.9C2521.51 2048.16 2520.53 2041.13 2524.27 2036.19 2527.99 2031.26 2535.03 2030.28 2539.96 2034.01 2544.91 2037.74 2545.89 2044.78 2542.15 2049.71 2538.41 2054.66 2531.39 2055.62 2526.44 2051.9Z" stroke="#000000" stroke-width="6.22793" stroke-miterlimit="8" fill-rule="evenodd" transform="matrix(1.00071 0 0 1 681.547 -687.989)"/><path d="M2561.21 2005.91C2556.28 2002.17 2555.3 1995.13 2559.04 1990.2 2562.78 1985.26 2569.8 1984.29 2574.74 1988.01 2579.68 1991.75 2580.66 1998.79 2576.92 2003.72 2573.19 2008.65 2566.16 2009.63 2561.21 2005.91Z" stroke="#000000" stroke-width="6.22793" stroke-miterlimit="8" fill-rule="evenodd" transform="matrix(1.00071 0 0 1 681.547 -687.989)"/><path d="M2595.86 1960.07C2590.92 1956.35 2589.94 1949.31 2593.68 1944.38 2597.41 1939.43 2604.44 1938.45 2609.39 1942.19 2614.32 1945.93 2615.3 1952.95 2611.56 1957.9 2607.84 1962.83 2600.8 1963.81 2595.86 1960.07Z" stroke="#000000" stroke-width="6.22793" stroke-miterlimit="8" fill-rule="evenodd" transform="matrix(1.00071 0 0 1 681.547 -687.989)"/><path d="M2630.64 1914.08C2625.69 1910.35 2624.73 1903.31 2628.45 1898.38 2632.19 1893.44 2639.22 1892.46 2644.16 1896.19 2649.09 1899.93 2650.07 1906.96 2646.34 1911.9 2642.61 1916.83 2635.57 1917.81 2630.64 1914.08Z" stroke="#000000" stroke-width="6.22793" stroke-miterlimit="8" fill-rule="evenodd" transform="matrix(1.00071 0 0 1 681.547 -687.989)"/><path d="M2665.27 1868.26C2660.34 1864.52 2659.36 1857.49 2663.1 1852.56 2666.84 1847.62 2673.86 1846.64 2678.79 1850.37 2683.74 1854.11 2684.72 1861.14 2680.98 1866.08 2677.24 1871.02 2670.22 1871.99 2665.27 1868.26Z" stroke="#000000" stroke-width="6.22793" stroke-miterlimit="8" fill-rule="evenodd" transform="matrix(1.00071 0 0 1 681.547 -687.989)"/><path d="M2671.44 2134.71C2677.45 2134.71 2682.31 2139.57 2682.31 2145.58 2682.31 2151.58 2677.45 2156.45 2671.44 2156.45 2665.44 2156.45 2660.57 2151.58 2660.57 2145.58 2660.57 2139.57 2665.44 2134.71 2671.44 2134.71Z" stroke="#000000" stroke-width="3.11397" stroke-miterlimit="8" fill-rule="evenodd" transform="matrix(1.00071 0 0 1 681.547 -687.989)"/><path d="M2671.44 2191.78C2677.45 2191.78 2682.31 2196.96 2682.31 2203.33 2682.31 2209.7 2677.45 2214.88 2671.44 2214.88 2665.44 2214.88 2660.57 2209.7 2660.57 2203.33 2660.57 2196.96 2665.44 2191.78 2671.44 2191.78Z" stroke="#000000" stroke-width="3.11397" stroke-miterlimit="8" fill-rule="evenodd" transform="matrix(1.00071 0 0 1 681.547 -687.989)"/><path d="M2671.44 2250.21C2677.45 2250.21 2682.31 2255.07 2682.31 2261.08 2682.31 2267.08 2677.45 2271.95 2671.44 2271.95 2665.44 2271.95 2660.57 2267.08 2660.57 2261.08 2660.57 2255.07 2665.44 2250.21 2671.44 2250.21Z" stroke="#000000" stroke-width="3.11397" stroke-miterlimit="8" fill-rule="evenodd" transform="matrix(1.00071 0 0 1 681.547 -687.989)"/><path d="M2671.44 2307.28C2677.45 2307.28 2682.31 2312.14 2682.31 2318.15 2682.31 2324.16 2677.45 2329.02 2671.44 2329.02 2665.44 2329.02 2660.57 2324.16 2660.57 2318.15 2660.57 2312.14 2665.44 2307.28 2671.44 2307.28Z" stroke="#000000" stroke-width="3.11397" stroke-miterlimit="8" fill-rule="evenodd" transform="matrix(1.00071 0 0 1 681.547 -687.989)"/><path d="M2671.44 2367.07C2677.45 2367.07 2682.31 2371.93 2682.31 2377.94 2682.31 2383.94 2677.45 2388.81 2671.44 2388.81 2665.44 2388.81 2660.57 2383.94 2660.57 2377.94 2660.57 2371.93 2665.44 2367.07 2671.44 2367.07Z" stroke="#000000" stroke-width="3.11397" stroke-miterlimit="8" fill-rule="evenodd" transform="matrix(1.00071 0 0 1 681.547 -687.989)"/><path d="M2671.44 2424.14C2677.45 2424.14 2682.31 2429.31 2682.31 2435.69 2682.31 2442.06 2677.45 2447.24 2671.44 2447.24 2665.44 2447.24 2660.57 2442.06 2660.57 2435.69 2660.57 2429.31 2665.44 2424.14 2671.44 2424.14Z" stroke="#000000" stroke-width="3.11397" stroke-miterlimit="8" fill-rule="evenodd" transform="matrix(1.00071 0 0 1 681.547 -687.989)"/><path d="M2671.44 2481.21C2677.45 2481.21 2682.31 2486.38 2682.31 2492.76 2682.31 2499.13 2677.45 2504.31 2671.44 2504.31 2665.44 2504.31 2660.57 2499.13 2660.57 2492.76 2660.57 2486.38 2665.44 2481.21 2671.44 2481.21Z" stroke="#000000" stroke-width="3.11397" stroke-miterlimit="8" fill-rule="evenodd" transform="matrix(1.00071 0 0 1 681.547 -687.989)"/><path d="M2671.44 2539.64C2677.45 2539.64 2682.31 2544.5 2682.31 2550.51 2682.31 2556.51 2677.45 2561.38 2671.44 2561.38 2665.44 2561.38 2660.57 2556.51 2660.57 2550.51 2660.57 2544.5 2665.44 2539.64 2671.44 2539.64Z" stroke="#000000" stroke-width="3.11397" stroke-miterlimit="8" fill-rule="evenodd" transform="matrix(1.00071 0 0 1 681.547 -687.989)"/><path d="M2671.44 2596.71C2677.45 2596.71 2682.31 2601.88 2682.31 2608.26 2682.31 2614.63 2677.45 2619.81 2671.44 2619.81 2665.44 2619.81 2660.57 2614.63 2660.57 2608.26 2660.57 2601.88 2665.44 2596.71 2671.44 2596.71Z" stroke="#000000" stroke-width="3.11397" stroke-miterlimit="8" fill-rule="evenodd" transform="matrix(1.00071 0 0 1 681.547 -687.989)"/><path d="M2671.44 2653.78C2677.45 2653.78 2682.31 2658.95 2682.31 2665.33 2682.31 2671.7 2677.45 2676.88 2671.44 2676.88 2665.44 2676.88 2660.57 2671.7 2660.57 2665.33 2660.57 2658.95 2665.44 2653.78 2671.44 2653.78Z" stroke="#000000" stroke-width="3.11397" stroke-miterlimit="8" fill-rule="evenodd" transform="matrix(1.00071 0 0 1 681.547 -687.989)"/></g></g></g></svg>